<svg version="1.1" id="Layer_1" xmlns="http://www.w3.org/2000/svg" xmlns:xlink="http://www.w3.org/1999/xlink" x="0px" y="0px"
	 width="100%" viewBox="0 0 1024 1024" enable-background="new 0 0 1024 1024" xml:space="preserve">
<path fill="#000000" opacity="1.000000" stroke="none" 
	d="
M566.000000,1025.000000 
	C377.333344,1025.000000 189.166672,1025.000000 1.000000,1025.000000 
	C1.000000,683.666687 1.000000,342.333344 1.000000,1.000000 
	C342.333344,1.000000 683.666687,1.000000 1025.000000,1.000000 
	C1025.000000,342.333344 1025.000000,683.666687 1025.000000,1025.000000 
	C872.166687,1025.000000 719.333313,1025.000000 566.000000,1025.000000 
M885.000000,472.500000 
	C885.333374,461.288055 885.799988,450.078064 885.963074,438.863647 
	C886.130127,427.370819 886.000000,415.873627 886.000000,404.378357 
	C885.999939,390.232910 886.086365,376.086700 885.954163,361.942474 
	C885.906616,356.854034 885.008240,351.766968 885.063965,346.685486 
	C885.203796,333.930908 885.945862,321.179474 885.927185,308.427521 
	C885.905273,293.508057 885.493591,278.583282 884.930542,263.672913 
	C884.659302,256.489624 884.332886,249.188858 882.838257,242.196304 
	C879.753845,227.765427 875.523438,213.719711 868.331299,200.568909 
	C858.288513,182.205902 844.341431,167.502411 827.142700,156.162018 
	C804.526123,141.249207 778.982361,135.078568 752.098694,135.058792 
	C590.599915,134.939941 429.100952,134.991150 267.602051,135.042404 
	C262.852081,135.043915 258.044037,135.318649 253.362854,136.079681 
	C236.570282,138.809631 220.822174,144.514053 206.012299,152.960510 
	C190.016495,162.083389 176.324142,173.784500 165.740448,188.839279 
	C149.635559,211.747696 141.929962,237.282410 141.948120,265.365814 
	C142.053986,429.031311 141.988876,592.696899 142.041992,756.362427 
	C142.044022,762.611267 142.475555,768.876831 143.034470,775.105286 
	C144.606873,792.627380 149.263275,809.257263 158.159546,824.538391 
	C169.183624,843.474548 182.802170,859.745911 201.803665,871.609924 
	C222.589798,884.588135 245.224243,891.456116 269.140045,891.738831 
	C353.884277,892.740784 438.641174,892.678955 523.393433,892.985413 
	C543.559631,893.058350 563.729431,893.221252 583.892395,892.954529 
	C646.061218,892.132324 708.268982,895.084229 770.404602,891.014832 
	C784.263245,890.107178 797.375549,886.457642 809.885437,880.571960 
	C825.566528,873.194275 839.435852,863.486145 851.230286,850.531616 
	C860.185486,840.695679 867.785339,829.982239 873.141357,818.068604 
	C879.897095,803.041565 883.954102,787.000000 884.940125,770.422852 
	C885.588379,759.522461 885.919678,748.588928 885.954041,737.668884 
	C886.073059,699.844910 886.129395,662.019714 885.961487,624.196106 
	C885.811646,590.442932 885.323425,556.691406 885.008789,522.938904 
	C884.948364,516.459717 885.000122,509.979523 885.000122,503.499786 
	C885.000061,493.499847 885.000000,483.499939 885.000000,472.500000 
z"/>
<path fill="#FFFFFF" opacity="1.000000" stroke="none" 
	d="
M885.000000,473.000000 
	C885.000000,483.499939 885.000061,493.499847 885.000122,503.499786 
	C885.000122,509.979523 884.948364,516.459717 885.008789,522.938904 
	C885.323425,556.691406 885.811646,590.442932 885.961487,624.196106 
	C886.129395,662.019714 886.073059,699.844910 885.954041,737.668884 
	C885.919678,748.588928 885.588379,759.522461 884.940125,770.422852 
	C883.954102,787.000000 879.897095,803.041565 873.141357,818.068604 
	C867.785339,829.982239 860.185486,840.695679 851.230286,850.531616 
	C839.435852,863.486145 825.566528,873.194275 809.885437,880.571960 
	C797.375549,886.457642 784.263245,890.107178 770.404602,891.014832 
	C708.268982,895.084229 646.061218,892.132324 583.892395,892.954529 
	C563.729431,893.221252 543.559631,893.058350 523.393433,892.985413 
	C438.641174,892.678955 353.884277,892.740784 269.140045,891.738831 
	C245.224243,891.456116 222.589798,884.588135 201.803665,871.609924 
	C182.802170,859.745911 169.183624,843.474548 158.159546,824.538391 
	C149.263275,809.257263 144.606873,792.627380 143.034470,775.105286 
	C142.475555,768.876831 142.044022,762.611267 142.041992,756.362427 
	C141.988876,592.696899 142.053986,429.031311 141.948120,265.365814 
	C141.929962,237.282410 149.635559,211.747696 165.740448,188.839279 
	C176.324142,173.784500 190.016495,162.083389 206.012299,152.960510 
	C220.822174,144.514053 236.570282,138.809631 253.362854,136.079681 
	C258.044037,135.318649 262.852081,135.043915 267.602051,135.042404 
	C429.100952,134.991150 590.599915,134.939941 752.098694,135.058792 
	C778.982361,135.078568 804.526123,141.249207 827.142700,156.162018 
	C844.341431,167.502411 858.288513,182.205902 868.331299,200.568909 
	C875.523438,213.719711 879.753845,227.765427 882.838257,242.196304 
	C884.332886,249.188858 884.659302,256.489624 884.930542,263.672913 
	C885.493591,278.583282 885.905273,293.508057 885.927185,308.427521 
	C885.945862,321.179474 885.203796,333.930908 885.063965,346.685486 
	C885.008240,351.766968 885.906616,356.854034 885.954163,361.942474 
	C886.086365,376.086700 885.999939,390.232910 886.000000,404.378357 
	C886.000000,415.873627 886.130127,427.370819 885.963074,438.863647 
	C885.799988,450.078064 885.333374,461.288055 885.000000,473.000000 
M477.249237,457.177490 
	C476.967285,456.996918 476.685333,456.816315 476.401703,456.522217 
	C476.401703,456.522217 476.376801,456.411438 476.142487,455.887878 
	C475.085358,456.273193 474.028229,456.658508 472.805145,457.194855 
	C472.805145,457.194855 472.886841,457.403839 472.344116,457.821320 
	C472.040710,458.891418 471.737305,459.961517 471.099182,461.643860 
	C471.096039,462.106018 471.092896,462.568207 470.884827,463.801361 
	C467.266632,478.413849 469.440643,492.473267 474.908752,506.621857 
	C474.908752,506.621857 475.072479,506.994507 475.001434,507.737213 
	C476.307831,510.570953 477.614227,513.404724 478.912537,516.641235 
	C478.912537,516.641235 479.100983,516.997253 479.134247,517.642029 
	C479.759888,518.755493 480.385529,519.868958 480.998779,520.997559 
	C480.998779,520.997559 481.013702,520.991333 481.068939,521.656799 
	C481.666351,522.582214 482.263763,523.507629 482.834717,524.748779 
	C482.834717,524.748779 483.028961,524.999207 483.059845,525.636169 
	C483.652130,526.486633 484.244415,527.337097 484.882599,528.100769 
	C484.882599,528.100769 484.784454,528.102783 484.844788,528.602539 
	C484.876221,528.985291 485.078094,529.222656 485.435608,529.442139 
	C485.435608,529.442139 485.436615,529.570435 485.566071,530.147278 
	C486.018585,530.799683 486.471069,531.452148 486.971558,532.036133 
	C486.971558,532.036133 486.887970,532.035950 486.985687,532.809570 
	C487.103088,534.817566 487.220459,536.825562 487.006104,539.433411 
	C486.331024,541.298950 485.641022,543.159180 484.983063,545.030762 
	C475.757996,571.270630 466.432922,597.476318 457.428864,623.791809 
	C456.091522,627.700378 453.932678,629.172424 450.219452,629.954285 
	C443.199463,631.432373 440.987915,636.447449 443.590454,643.161804 
	C444.406403,645.266846 444.518066,647.916016 444.109955,650.163208 
	C443.433197,653.889709 442.313416,657.583435 440.959900,661.130554 
	C436.210388,673.577637 431.417053,686.039490 418.460114,692.672241 
	C414.054504,694.927551 413.956451,698.562439 415.099304,702.849670 
	C418.128693,714.213684 418.742523,725.781738 417.193024,737.429138 
	C415.884033,747.268433 414.381866,757.082092 412.559814,767.550598 
	C411.607117,772.018677 410.303802,776.454590 409.888763,780.972046 
	C409.740051,782.590759 411.735657,784.406494 413.274170,786.658325 
	C417.341095,787.644836 419.345337,785.116577 421.155792,782.121826 
	C427.239349,772.058838 433.032898,761.799744 439.553802,752.026917 
	C448.518677,738.591309 460.811523,728.448730 473.842865,719.130798 
	C475.163391,718.186523 476.573547,716.121338 476.463165,714.690369 
	C476.254974,711.990845 474.969635,709.374512 474.136108,705.868408 
	C473.731750,697.601807 473.327393,689.335205 473.097534,680.340942 
	C474.113068,675.763123 474.812927,671.084534 476.234161,666.636292 
	C477.615967,662.311279 477.451202,656.766357 484.710693,656.598389 
	C488.794067,656.503906 491.700287,650.265808 489.896332,646.416260 
	C488.080505,642.541382 485.447388,639.049438 483.338043,635.656128 
	C487.824982,621.567322 492.406586,607.064392 497.066132,592.586609 
	C500.970734,580.454468 504.781067,568.284912 509.093811,556.297668 
	C509.862183,554.161926 512.621033,552.052917 514.913086,551.289673 
	C520.756348,549.343933 527.002197,548.595398 532.825317,546.603088 
	C552.913818,539.730225 569.366028,527.915771 580.974792,509.858856 
	C581.794495,508.583862 582.356628,507.143372 583.680359,504.496490 
	C577.662537,506.483612 573.115845,507.984955 568.569214,509.486267 
	C568.379639,508.982910 568.190125,508.479523 568.000549,507.976135 
	C568.438171,507.634949 568.878235,507.296875 569.313110,506.952118 
	C586.869019,493.034576 605.020630,479.792328 621.797668,464.991821 
	C636.100037,452.374451 643.221802,433.551666 657.302673,420.419067 
	C659.676392,418.205261 661.472229,415.201385 663.004822,412.284027 
	C672.473022,394.260651 681.921875,376.224152 691.069824,358.037445 
	C693.583923,353.039368 695.299194,347.584961 696.845459,342.186584 
	C697.333191,340.483734 698.992737,336.686646 693.424011,337.013184 
	C692.562988,336.603485 691.702026,336.193756 691.242310,335.250031 
	C695.815613,331.171661 701.515076,327.823639 704.731140,322.864929 
	C711.725647,312.080353 718.496399,300.911255 723.447266,289.098267 
	C730.343201,272.644226 735.671326,255.516983 741.277344,238.547989 
	C743.019226,233.275635 741.953491,232.143982 736.388184,232.975708 
	C725.074158,234.666580 713.713684,236.376038 702.604553,239.044449 
	C672.542542,246.265350 643.318726,255.721741 616.164185,271.080750 
	C587.096924,287.521545 561.459534,308.138611 538.967468,332.627930 
	C524.290222,348.608459 514.964111,367.561737 510.980682,389.873840 
	C510.053802,398.341125 509.126923,406.808411 508.099182,416.197174 
	C506.845093,411.246918 505.806458,407.147095 504.753632,402.493927 
	C504.626617,402.360413 504.499634,402.226929 504.309021,401.512146 
	C503.903229,400.654449 503.497437,399.796753 503.078125,398.212372 
	C500.960632,395.436584 498.843140,392.660797 496.725647,389.885010 
	C494.851349,392.608063 492.977020,395.331116 490.860321,398.584991 
	C490.765747,398.955811 490.671173,399.326630 490.598938,399.781158 
	C490.598938,399.781158 490.685577,399.779694 490.082428,400.174683 
	C488.425507,407.451233 486.768555,414.727814 484.984528,422.677338 
	C485.020386,423.130951 485.056213,423.584595 484.952118,424.895996 
	C485.001221,434.917816 485.050323,444.939636 485.006561,455.853302 
	C485.557526,460.516998 486.108521,465.180695 486.659515,469.844391 
	C486.403503,469.924438 486.147461,470.004456 485.891449,470.084503 
	C483.347015,466.344116 480.802551,462.603729 478.099152,458.327209 
	C477.823456,458.112427 477.547760,457.897644 477.293243,457.825043 
	C477.293243,457.825043 477.357025,457.696228 477.249237,457.177490 
z"/>
<path fill="#1E8FCC" opacity="1.000000" stroke="none" 
	d="
M412.965210,766.907104 
	C414.381866,757.082092 415.884033,747.268433 417.193024,737.429138 
	C418.742523,725.781738 418.128693,714.213684 415.099304,702.849670 
	C413.956451,698.562439 414.054504,694.927551 418.460114,692.672241 
	C431.417053,686.039490 436.210388,673.577637 440.959900,661.130554 
	C442.313416,657.583435 443.433197,653.889709 444.109955,650.163208 
	C444.518066,647.916016 444.406403,645.266846 443.590454,643.161804 
	C440.987915,636.447449 443.199463,631.432373 450.219452,629.954285 
	C453.932678,629.172424 456.091522,627.700378 457.428864,623.791809 
	C466.432922,597.476318 475.757996,571.270630 484.983063,545.030762 
	C485.641022,543.159180 486.331024,541.298950 487.558411,539.035095 
	C489.490356,536.105408 489.838135,533.765259 486.887970,532.035950 
	C486.887970,532.035950 486.971558,532.036133 486.973877,531.699219 
	C486.462982,530.765015 485.949799,530.167725 485.436615,529.570435 
	C485.436615,529.570435 485.435608,529.442139 485.528473,529.106384 
	C485.342377,528.548035 485.063416,528.325378 484.784454,528.102783 
	C484.784454,528.102783 484.882599,528.100769 484.913940,527.777710 
	C484.306519,526.636230 483.667725,525.817688 483.028961,524.999207 
	C483.028961,524.999207 482.834717,524.748779 482.889435,524.202576 
	C482.300659,522.768005 481.657196,521.879700 481.013702,520.991333 
	C481.013702,520.991333 480.998779,520.997559 481.004395,520.620117 
	C480.373688,519.160889 479.737335,518.079041 479.100983,516.997253 
	C479.100983,516.997253 478.912537,516.641235 478.942749,516.034912 
	C477.672760,512.617249 476.372620,509.805878 475.072479,506.994507 
	C475.072479,506.994507 474.908752,506.621857 474.949127,505.985107 
	C474.749847,503.728851 474.768616,502.017090 474.228638,500.504822 
	C470.755981,490.779205 470.741669,480.709717 471.017181,470.595123 
	C471.085815,468.074768 471.067871,465.552002 471.089752,463.030365 
	C471.092896,462.568207 471.096039,462.106018 471.539429,461.461060 
	C472.282043,459.986786 472.584442,458.695312 472.886841,457.403839 
	C472.886841,457.403839 472.805145,457.194855 473.324554,457.101501 
	C474.688263,456.809235 475.532532,456.610352 476.376801,456.411438 
	C476.376801,456.411438 476.401703,456.522217 476.378418,456.878235 
	C476.689117,457.388245 477.023071,457.542236 477.357025,457.696228 
	C477.357025,457.696228 477.293243,457.825043 477.299103,458.050110 
	C477.622681,458.471191 477.940399,458.667267 478.258118,458.863342 
	C480.802551,462.603729 483.347015,466.344116 485.891449,470.084503 
	C486.147461,470.004456 486.403503,469.924438 486.659515,469.844391 
	C486.108521,465.180695 485.557526,460.516998 485.325989,455.099915 
	C485.759552,447.942566 485.998810,441.537506 485.939789,435.135193 
	C485.905640,431.433899 485.390656,427.737061 485.092072,424.038208 
	C485.056213,423.584595 485.020386,423.130951 485.348602,422.450134 
	C487.370331,414.741882 489.027954,407.260773 490.685577,399.779694 
	C490.685577,399.779694 490.598938,399.781158 490.876099,399.752441 
	C491.136414,399.167206 491.119568,398.610687 491.102692,398.054138 
	C492.977020,395.331116 494.851349,392.608063 496.725647,389.885010 
	C498.843140,392.660797 500.960632,395.436584 502.828033,398.747009 
	C503.053589,400.519989 503.529266,401.758362 504.001282,403.409515 
	C504.666534,407.026123 505.202637,410.266632 506.072327,413.414978 
	C506.402802,414.611237 507.500580,415.595581 508.248657,416.676483 
	C508.832733,415.552002 509.776886,414.475403 509.934113,413.294098 
	C510.430115,409.566406 510.746216,405.804657 510.916138,402.046326 
	C511.111542,397.723633 511.076721,393.390533 511.141907,389.061951 
	C514.964111,367.561737 524.290222,348.608459 538.967468,332.627930 
	C561.459534,308.138611 587.096924,287.521545 616.164185,271.080750 
	C643.318726,255.721741 672.542542,246.265350 702.604553,239.044449 
	C713.713684,236.376038 725.074158,234.666580 736.388184,232.975708 
	C741.953491,232.143982 743.019226,233.275635 741.277344,238.547989 
	C735.671326,255.516983 730.343201,272.644226 723.447266,289.098267 
	C718.496399,300.911255 711.725647,312.080353 704.731140,322.864929 
	C701.515076,327.823639 695.815613,331.171661 690.700134,335.604401 
	C683.671265,339.166901 677.184570,342.375031 670.697876,345.583160 
	C678.986206,343.982422 687.215515,342.259399 694.183899,337.092316 
	C698.992737,336.686646 697.333191,340.483734 696.845459,342.186584 
	C695.299194,347.584961 693.583923,353.039368 691.069824,358.037445 
	C681.921875,376.224152 672.473022,394.260651 663.004822,412.284027 
	C661.472229,415.201385 659.676392,418.205261 657.302673,420.419067 
	C643.221802,433.551666 636.100037,452.374451 621.797668,464.991821 
	C605.020630,479.792328 586.869019,493.034576 569.313110,506.952118 
	C568.878235,507.296875 568.438171,507.634949 568.000549,507.976135 
	C568.190125,508.479523 568.379639,508.982910 568.569214,509.486267 
	C573.115845,507.984955 577.662537,506.483612 583.680359,504.496490 
	C582.356628,507.143372 581.794495,508.583862 580.974792,509.858856 
	C569.366028,527.915771 552.913818,539.730225 532.825317,546.603088 
	C527.002197,548.595398 520.756348,549.343933 514.913086,551.289673 
	C512.621033,552.052917 509.862183,554.161926 509.093811,556.297668 
	C504.781067,568.284912 500.970734,580.454468 497.066132,592.586609 
	C492.406586,607.064392 487.824982,621.567322 483.338043,635.656128 
	C485.447388,639.049438 488.080505,642.541382 489.896332,646.416260 
	C491.700287,650.265808 488.794067,656.503906 484.710693,656.598389 
	C477.451202,656.766357 477.615967,662.311279 476.234161,666.636292 
	C474.812927,671.084534 474.113068,675.763123 472.722534,680.996582 
	C472.570190,690.196777 472.792877,698.741272 473.015564,707.285828 
	C473.387695,707.098389 473.759827,706.911011 474.131989,706.723572 
	C474.969635,709.374512 476.254974,711.990845 476.463165,714.690369 
	C476.573547,716.121338 475.163391,718.186523 473.842865,719.130798 
	C460.811523,728.448730 448.518677,738.591309 439.553802,752.026917 
	C433.032898,761.799744 427.239349,772.058838 421.155792,782.121826 
	C419.345337,785.116577 417.341095,787.644836 413.304626,786.336121 
	C413.492371,785.958923 413.675171,785.936523 413.799622,785.839417 
	C413.916016,785.748474 413.970612,785.578308 414.052429,785.442993 
	C410.201233,784.098877 410.881989,781.178162 411.394989,778.176025 
	C412.033539,774.439392 412.451813,770.665100 412.965210,766.907104 
M555.778076,490.711334 
	C555.778076,490.711334 555.725098,490.800293 556.312256,490.717834 
	C556.509949,490.395355 556.707642,490.072876 557.260559,489.181976 
	C567.803955,484.445404 578.266968,479.518311 588.914368,475.028351 
	C598.599121,470.944397 605.945679,464.088104 612.984863,456.974396 
	C601.640808,458.435394 590.519348,459.910980 579.380920,461.245209 
	C578.053650,461.404175 576.634033,460.792938 575.257202,460.538727 
	C602.680725,454.514832 623.280579,438.865631 642.021606,420.173431 
	C641.801941,419.765442 641.582275,419.357452 641.362610,418.949463 
	C632.408630,421.686523 623.454712,424.423615 613.855225,426.872101 
	C613.563599,426.263855 613.272034,425.655609 613.607056,424.695496 
	C616.320251,423.488129 619.015625,422.238770 621.749634,421.080414 
	C636.707397,414.742981 650.805237,407.310669 658.957825,391.500092 
	C658.468506,391.016754 657.776672,390.026306 657.521057,390.128387 
	C654.910828,391.170532 652.368103,392.382935 649.813354,393.562561 
	C647.554382,394.605652 645.304077,395.667603 642.305176,396.976227 
	C641.520447,396.991699 640.735657,397.007202 639.102722,396.999420 
	C637.479187,396.527985 635.855652,396.056519 634.473877,395.410797 
	C634.473877,395.410797 634.765564,395.471832 635.386047,395.758820 
	C636.553284,395.057404 637.720520,394.355988 639.477844,393.152710 
	C658.954407,384.597412 670.281250,374.808929 673.834961,363.860229 
	C669.238831,365.517670 664.304749,367.296936 658.448364,369.031799 
	C657.021545,368.536774 655.594727,368.041779 654.441467,367.414703 
	C654.441467,367.414703 654.703552,367.568329 655.241760,367.659210 
	C655.486877,367.408295 655.731995,367.157349 655.970825,366.982391 
	C655.970825,366.982391 655.906006,366.942322 656.622192,366.981598 
	C657.744019,366.307800 658.865845,365.634003 659.987244,365.006775 
	C659.987244,365.006775 659.954834,364.973206 660.678406,364.992004 
	C661.362183,364.519470 662.045959,364.046967 662.827942,363.669403 
	C662.827942,363.669403 662.694031,363.696442 663.244080,363.706940 
	C663.492798,363.454865 663.741516,363.202789 663.985168,363.006470 
	C663.985168,363.006470 663.941528,362.971283 664.672546,362.991943 
	C665.327515,362.499084 665.982422,362.006256 666.740601,361.546600 
	C666.740601,361.546600 666.679932,361.636566 667.247681,361.674286 
	C667.476318,361.391083 667.704956,361.107880 667.920898,360.917114 
	C667.920898,360.917114 667.839355,360.871826 668.583557,360.967377 
	C669.976929,359.857697 671.370361,358.748016 672.870056,357.759674 
	C672.870056,357.759674 672.718872,357.815979 673.285828,357.695740 
	C673.509827,357.394165 673.733765,357.092590 674.296021,356.241241 
	C675.362854,355.366302 676.429626,354.491364 678.037720,353.172485 
	C671.776306,353.804230 666.364319,354.350250 660.351379,354.343048 
	C652.925964,354.343048 645.500549,354.343048 638.075134,354.343048 
	C638.071350,354.804382 638.067627,355.265717 638.063843,355.727020 
	C639.489197,355.870697 640.914612,356.014374 641.609863,356.535950 
	C639.388855,356.656860 637.167908,356.777740 634.410828,356.368317 
	C632.248596,356.165985 630.086426,355.963654 627.869690,355.756195 
	C628.663086,354.575378 629.276123,353.662933 629.899109,352.860382 
	C629.899109,352.860382 629.797791,352.816620 630.570190,352.940155 
	C632.720581,351.647308 634.871033,350.354462 637.301147,348.875885 
	C637.301147,348.875885 637.634338,348.917328 638.286072,348.970886 
	C638.742493,348.591858 639.198914,348.212799 640.168213,347.298370 
	C647.505554,344.349762 654.842896,341.401123 662.212280,338.439636 
	C661.507751,336.419556 661.046204,335.096222 660.622803,333.882202 
	C667.102600,331.541718 673.303284,329.212219 679.565491,327.061707 
	C688.456421,324.008453 694.794495,317.898682 699.928284,310.324768 
	C700.049988,310.145264 699.274536,309.357574 698.559387,308.407715 
	C698.014343,307.541382 697.469299,306.675049 697.317566,305.269562 
	C705.544617,301.346375 709.178772,293.901398 712.706116,285.897339 
	C712.210449,284.806122 711.714783,283.714905 711.370483,282.528259 
	C711.370483,282.528259 711.541504,282.475586 712.193298,282.612610 
	C712.446289,282.049652 712.699280,281.486694 712.996460,280.989471 
	C712.996460,280.989471 712.924561,280.956299 713.657654,280.903961 
	C714.418091,279.570923 715.178467,278.237885 716.012634,276.180267 
	C716.651123,274.383118 717.289612,272.585968 717.907166,270.847595 
	C716.803833,270.145294 715.912292,269.577850 715.541199,268.534760 
	C721.820190,264.962067 722.699402,258.310883 724.930969,251.624130 
	C725.938538,250.094971 726.946106,248.565811 727.996521,246.999878 
	C727.996521,246.999878 728.033813,246.957504 728.499756,246.548004 
	C727.168030,246.384674 725.696228,245.784134 724.535767,246.155685 
	C722.563782,246.787094 720.787903,248.030731 718.621033,248.378067 
	C715.787964,249.260544 712.954834,250.143036 709.429565,250.991287 
	C708.000732,250.797836 706.571838,250.604385 704.454895,250.880783 
	C701.336426,252.258118 698.217896,253.635452 694.423767,254.958710 
	C693.578186,254.680359 692.732666,254.402008 691.161255,254.224594 
	C687.634460,256.208527 683.631287,257.666260 680.706238,260.314728 
	C677.344910,263.358276 674.938110,267.455994 671.594482,271.280670 
	C671.496094,271.617584 671.397705,271.954498 671.385437,272.414093 
	C671.385437,272.414093 671.343018,272.557831 670.831482,272.080078 
	C670.241272,271.404510 669.651062,270.728943 669.003357,269.273926 
	C669.697266,266.652832 670.391235,264.031738 671.103638,261.340790 
	C657.590698,263.288849 656.085571,275.838257 649.184204,285.095703 
	C646.673767,278.205139 651.838013,273.637726 652.095764,268.560364 
	C638.652161,270.378479 632.069885,279.089935 627.963989,290.786957 
	C627.614197,288.424896 627.264404,286.062805 626.868347,283.332825 
	C626.868347,283.332825 627.027893,282.998169 627.350769,282.834961 
	C627.417236,282.735840 627.562561,282.586761 627.536743,282.546082 
	C627.415771,282.355225 627.247864,282.194183 627.016663,281.417816 
	C627.083679,280.710541 627.150696,280.003265 627.214539,279.329895 
	C619.117249,282.355621 614.481934,288.437622 611.276062,295.699097 
	C608.757324,301.404205 606.672485,307.300903 603.791382,313.257660 
	C603.611816,314.242371 603.432312,315.227112 603.310913,316.286224 
	C603.310913,316.286224 603.298035,316.379700 602.742615,315.945984 
	C602.186096,314.983429 601.629517,314.020874 600.987366,312.211029 
	C602.143005,305.843750 603.298645,299.476501 604.559814,292.527924 
	C593.343872,299.777924 585.776917,309.266296 582.174255,321.572998 
	C580.285095,328.026367 579.411255,334.776917 577.926697,340.519836 
	C577.587585,337.319763 577.248535,334.119659 576.852295,330.067413 
	C578.082520,323.600433 579.312683,317.133484 580.616455,310.279480 
	C568.183472,320.664703 562.103638,334.171112 558.001709,349.027100 
	C557.673828,348.986694 557.344788,348.972900 557.002686,348.124725 
	C557.028809,345.095215 557.054871,342.065674 556.997803,338.268005 
	C557.635071,335.734802 558.272400,333.201630 559.085266,329.970581 
	C538.407166,347.542542 535.974548,370.445038 536.678040,394.729584 
	C532.572021,384.846649 532.951538,374.311340 532.414917,363.877686 
	C518.453491,393.311920 516.870117,423.540649 525.969055,455.063202 
	C527.175110,453.206390 528.175476,451.743744 529.098450,450.233765 
	C543.626831,426.465088 557.127441,402.008087 575.362305,380.712585 
	C585.055481,369.392456 594.863892,358.171082 605.367249,347.014221 
	C605.902161,347.985748 606.437012,348.957306 606.753784,350.566437 
	C591.374146,370.557678 575.442871,390.154938 560.792358,410.666962 
	C549.422791,426.585358 538.515015,443.049805 529.450500,460.345154 
	C517.311401,483.506805 506.263031,507.296692 499.348877,532.789429 
	C496.019135,545.066284 491.157166,556.927612 486.497528,569.512207 
	C480.386536,586.156555 477.158173,603.478455 474.408020,620.912476 
	C478.999847,604.363708 483.591675,587.814941 488.157379,571.219604 
	C488.157379,571.219604 488.196716,571.183472 488.638092,570.954956 
	C488.871094,570.676208 488.935608,570.362732 489.068848,569.313965 
	C491.268494,563.820068 493.468140,558.326233 496.409790,552.695007 
	C497.236145,550.271729 498.062500,547.848511 498.811188,545.191833 
	C498.811188,545.191833 498.984863,545.017700 499.494141,544.651306 
	C499.620270,544.053223 499.746368,543.455078 499.903839,542.966248 
	C499.903839,542.966248 499.812744,542.898254 500.516418,542.696594 
	C500.896637,541.395081 501.276825,540.093628 501.613525,538.785034 
	C501.613525,538.785034 501.593719,538.745667 502.310852,538.601685 
	C502.509308,537.693970 502.707733,536.786194 502.953003,535.946899 
	C502.953003,535.946899 502.875702,535.976685 503.414093,535.634705 
	C503.595367,534.831177 503.776642,534.027710 504.005341,532.469604 
	C507.556152,524.253906 511.796082,516.261353 514.541809,507.784912 
	C528.535889,464.583649 553.058899,427.146667 578.413208,390.176697 
	C595.423828,365.372925 615.914307,343.506775 637.803894,322.056000 
	C641.288147,318.805634 644.772339,315.555267 648.860596,312.039215 
	C650.873352,310.356018 652.886108,308.672791 655.610352,306.949921 
	C659.173462,304.305908 663.051636,301.985657 666.203125,298.918640 
	C668.875000,296.318420 670.707031,292.855103 673.207153,289.179016 
	C685.053162,280.431427 696.899170,271.683838 709.568970,262.987366 
	C710.459534,264.096771 711.350159,265.206177 712.142456,266.671326 
	C712.142456,266.671326 712.023071,267.020660 711.414246,267.178101 
	C711.414246,268.454865 711.414246,269.731628 711.414246,270.440033 
	C708.204041,272.052704 704.818176,273.167145 702.124390,275.199097 
	C679.334900,292.389191 656.879150,310.003357 636.942810,330.545197 
	C626.559387,341.243927 616.436523,352.195465 605.532043,363.231445 
	C600.652100,364.959869 603.015503,370.498657 600.145935,373.225769 
	C600.145935,373.225769 600.270630,373.214874 599.697693,373.270111 
	C599.488953,373.572601 599.280212,373.875122 598.715271,374.732941 
	C592.797974,383.176819 586.880676,391.620697 580.613892,400.480072 
	C580.973328,401.123047 581.332703,401.766022 581.504761,402.475861 
	C581.504761,402.475861 581.335022,402.372284 580.727295,402.397308 
	C580.507141,402.721741 580.286987,403.046204 579.685608,403.893951 
	C573.535400,411.780365 567.385193,419.666779 561.234985,427.553223 
	C561.668457,427.956238 562.101929,428.359253 562.535400,428.762268 
	C565.647644,427.491089 568.759888,426.219910 572.743591,425.010437 
	C573.798706,425.486389 574.853821,425.962341 575.641968,426.643921 
	C575.641968,426.643921 575.309814,426.587128 574.774841,426.401794 
	C574.557007,426.684509 574.339233,426.967224 574.116211,427.143738 
	C574.116211,427.143738 574.209412,427.194794 573.514954,427.095642 
	C572.692078,427.785706 571.869141,428.475769 570.681091,429.727692 
	C560.592712,435.194275 551.860474,441.956268 547.079773,452.919342 
	C544.968140,457.761719 541.821472,462.159210 539.788330,467.027466 
	C537.934998,471.465027 535.062988,475.250854 534.669434,480.724823 
	C534.339355,485.316559 529.339844,489.378235 527.454407,494.093170 
	C523.612000,503.701996 520.475037,513.592957 516.766541,524.168762 
	C537.317993,513.996399 556.405762,503.546539 573.103333,488.994476 
	C568.708801,490.281189 564.314331,491.567871 559.441101,492.363495 
	C558.296448,492.239502 557.151855,492.115540 555.884766,491.328064 
	C555.815735,491.113983 555.746765,490.899933 555.778076,490.711334 
M495.505798,427.579742 
	C495.351105,435.604218 495.196350,443.628723 495.086731,451.653809 
	C495.086700,451.657410 495.770172,451.670349 496.506714,452.409882 
	C498.188416,465.350983 502.088440,477.643127 507.787567,489.618866 
	C508.222809,487.418274 508.658081,485.217682 509.568878,482.691315 
	C509.749756,482.355530 509.930634,482.019745 510.760529,481.528442 
	C511.932373,477.580841 514.616699,473.361511 513.966309,469.741333 
	C512.540771,461.806458 509.420624,454.176605 507.001221,446.419495 
	C504.094910,437.101471 501.197601,427.780609 498.296417,418.460938 
	C498.059357,418.499420 497.822296,418.537903 497.585205,418.576355 
	C497.139587,421.458069 496.693970,424.339752 495.505798,427.579742 
M426.341492,740.204529 
	C428.666748,730.422180 430.968201,720.633972 433.341034,710.863159 
	C433.730072,709.261169 434.387054,707.717102 434.999115,706.177734 
	C436.755310,701.760986 440.770294,702.367615 443.835358,703.283142 
	C444.967163,703.621155 445.653870,707.799072 445.334564,710.054504 
	C444.929810,712.913269 443.381287,715.636963 442.171356,718.349976 
	C438.469879,726.649841 434.675903,734.908447 430.981720,743.211487 
	C430.677368,743.895508 430.854980,744.793884 430.790497,745.905823 
	C440.056854,734.908813 448.971680,724.328979 458.361359,714.132446 
	C458.887878,710.962830 460.675018,707.623779 457.009460,704.247375 
	C457.040070,703.486267 457.070709,702.725159 457.656250,701.354309 
	C457.764709,694.620239 457.989471,687.885254 457.935547,681.152466 
	C457.905884,677.447998 457.407318,673.747253 457.034912,669.216187 
	C457.637238,665.961060 458.246094,662.707153 458.840179,659.450500 
	C459.559784,655.505615 458.445038,653.085693 453.938721,653.348938 
	C448.991638,676.505615 440.696686,693.099854 423.528259,701.665283 
	C425.715637,713.432495 425.431091,725.218994 423.964447,736.087952 
	C423.964447,731.441284 423.964447,726.794678 423.964447,722.148010 
	C423.763458,722.155701 423.562439,722.163391 423.361450,722.171021 
	C423.361450,729.639343 423.361450,737.107666 423.361450,744.298645 
	C424.453003,743.848938 425.349518,743.479492 426.812134,742.876892 
	C426.822815,742.906921 426.464905,741.902161 426.341492,740.204529 
M482.237244,490.167206 
	C485.636993,500.783539 489.036743,511.399902 492.436523,522.016235 
	C493.073273,521.950500 493.710052,521.884766 494.346802,521.819031 
	C494.770386,516.350037 500.146210,511.723785 496.853149,505.724213 
	C492.281952,497.396027 487.251862,489.319641 482.418243,481.135468 
	C481.937195,481.352081 481.456146,481.568695 480.975067,481.785278 
	C481.356262,484.306122 481.737457,486.826935 482.237244,490.167206 
M528.820251,535.284363 
	C536.245850,532.051086 543.671448,528.817871 551.097046,525.584656 
	C550.820435,524.975830 550.543823,524.366943 550.267212,523.758118 
	C539.341370,526.847046 528.691772,530.565247 519.701660,538.217834 
	C522.505859,537.355896 525.310059,536.493958 528.820251,535.284363 
M461.299744,640.043762 
	C459.609131,640.126099 457.918488,640.208435 456.227875,640.290771 
	C462.210236,645.362183 469.507782,644.914307 476.160553,646.778198 
	C476.327972,646.308411 476.495361,645.838623 476.662781,645.368896 
	C471.819427,643.605164 466.976044,641.841492 461.299744,640.043762 
z"/>
<path fill="#2885BD" opacity="1.000000" stroke="none" 
	d="
M470.987305,463.415863 
	C471.067871,465.552002 471.085815,468.074768 471.017181,470.595123 
	C470.741669,480.709717 470.755981,490.779205 474.228638,500.504822 
	C474.768616,502.017090 474.749847,503.728851 474.962219,505.781982 
	C469.440643,492.473267 467.266632,478.413849 470.987305,463.415863 
z"/>
<path fill="#D8F6FB" opacity="1.000000" stroke="none" 
	d="
M693.803955,337.052734 
	C687.215515,342.259399 678.986206,343.982422 670.697876,345.583160 
	C677.184570,342.375031 683.671265,339.166901 690.499512,335.871399 
	C691.702026,336.193756 692.562988,336.603485 693.803955,337.052734 
z"/>
<path fill="#1378B5" opacity="1.000000" stroke="none" 
	d="
M511.061279,389.467896 
	C511.076721,393.390533 511.111542,397.723633 510.916138,402.046326 
	C510.746216,405.804657 510.430115,409.566406 509.934113,413.294098 
	C509.776886,414.475403 508.832733,415.552002 508.248657,416.676483 
	C507.500580,415.595581 506.402802,414.611237 506.072327,413.414978 
	C505.202637,410.266632 504.666534,407.026123 503.998779,403.411133 
	C504.000000,403.000000 503.995422,403.004028 504.188354,403.017883 
	C504.381317,403.031769 504.767853,403.047272 504.767822,403.047272 
	C505.806458,407.147095 506.845093,411.246918 508.099182,416.197174 
	C509.126923,406.808411 510.053802,398.341125 511.061279,389.467896 
z"/>
<path fill="#2885BD" opacity="1.000000" stroke="none" 
	d="
M485.022095,424.467102 
	C485.390656,427.737061 485.905640,431.433899 485.939789,435.135193 
	C485.998810,441.537506 485.759552,447.942566 485.372437,454.653992 
	C485.050323,444.939636 485.001221,434.917816 485.022095,424.467102 
z"/>
<path fill="#207EB9" opacity="1.000000" stroke="none" 
	d="
M490.384003,399.977173 
	C489.027954,407.260773 487.370331,414.741882 485.412140,422.113647 
	C486.768555,414.727814 488.425507,407.451233 490.384003,399.977173 
z"/>
<path fill="#1378B5" opacity="1.000000" stroke="none" 
	d="
M474.134033,706.296021 
	C473.759827,706.911011 473.387695,707.098389 473.015564,707.285828 
	C472.792877,698.741272 472.570190,690.196777 472.635254,681.360413 
	C473.327393,689.335205 473.731750,697.601807 474.134033,706.296021 
z"/>
<path fill="#2A78AC" opacity="1.000000" stroke="none" 
	d="
M412.762512,767.228882 
	C412.451813,770.665100 412.033539,774.439392 411.394989,778.176025 
	C410.881989,781.178162 410.201233,784.098877 414.052429,785.442993 
	C413.970612,785.578308 413.916016,785.748474 413.799622,785.839417 
	C413.675171,785.936523 413.492371,785.958923 413.043823,786.073120 
	C411.735657,784.406494 409.740051,782.590759 409.888763,780.972046 
	C410.303802,776.454590 411.607117,772.018677 412.762512,767.228882 
z"/>
<path fill="#2885BD" opacity="1.000000" stroke="none" 
	d="
M475.036957,507.365845 
	C476.372620,509.805878 477.672760,512.617249 478.946777,515.833557 
	C477.614227,513.404724 476.307831,510.570953 475.036957,507.365845 
z"/>
<path fill="#2885BD" opacity="1.000000" stroke="none" 
	d="
M486.936829,532.422729 
	C489.838135,533.765259 489.490356,536.105408 487.724304,538.735168 
	C487.220459,536.825562 487.103088,534.817566 486.936829,532.422729 
z"/>
<path fill="#1378B5" opacity="1.000000" stroke="none" 
	d="
M504.002472,402.998352 
	C503.529266,401.758362 503.053589,400.519989 502.834808,399.110352 
	C503.497437,399.796753 503.903229,400.654449 504.228241,401.928894 
	C504.048523,402.553955 503.997833,402.773407 503.995422,403.004028 
	C503.995422,403.004028 504.000000,403.000000 504.002472,402.998352 
z"/>
<path fill="#2885BD" opacity="1.000000" stroke="none" 
	d="
M479.117615,517.319641 
	C479.737335,518.079041 480.373688,519.160889 481.010620,520.612549 
	C480.385529,519.868958 479.759888,518.755493 479.117615,517.319641 
z"/>
<path fill="#2885BD" opacity="1.000000" stroke="none" 
	d="
M481.041321,521.324097 
	C481.657196,521.879700 482.300659,522.768005 482.902649,524.044678 
	C482.263763,523.507629 481.666351,522.582214 481.041321,521.324097 
z"/>
<path fill="#2885BD" opacity="1.000000" stroke="none" 
	d="
M483.044403,525.317688 
	C483.667725,525.817688 484.306519,526.636230 484.890991,527.821167 
	C484.244415,527.337097 483.652130,526.486633 483.044403,525.317688 
z"/>
<path fill="#2885BD" opacity="1.000000" stroke="none" 
	d="
M476.259644,456.149658 
	C475.532532,456.610352 474.688263,456.809235 473.407532,457.026001 
	C474.028229,456.658508 475.085358,456.273193 476.259644,456.149658 
z"/>
<path fill="#2885BD" opacity="1.000000" stroke="none" 
	d="
M472.615479,457.612579 
	C472.584442,458.695312 472.282043,459.986786 471.706757,461.154968 
	C471.737305,459.961517 472.040710,458.891418 472.615479,457.612579 
z"/>
<path fill="#2885BD" opacity="1.000000" stroke="none" 
	d="
M485.501343,529.858887 
	C485.949799,530.167725 486.462982,530.765015 486.949890,531.733398 
	C486.471069,531.452148 486.018585,530.799683 485.501343,529.858887 
z"/>
<path fill="#207EB9" opacity="1.000000" stroke="none" 
	d="
M490.981506,398.319580 
	C491.119568,398.610687 491.136414,399.167206 490.864929,399.710571 
	C490.671173,399.326630 490.765747,398.955811 490.981506,398.319580 
z"/>
<path fill="#2885BD" opacity="1.000000" stroke="none" 
	d="
M484.814636,528.352661 
	C485.063416,528.325378 485.342377,528.548035 485.535889,529.042664 
	C485.078094,529.222656 484.876221,528.985291 484.814636,528.352661 
z"/>
<path fill="#2885BD" opacity="1.000000" stroke="none" 
	d="
M478.178650,458.595276 
	C477.940399,458.667267 477.622681,458.471191 477.288513,457.979004 
	C477.547760,457.897644 477.823456,458.112427 478.178650,458.595276 
z"/>
<path fill="#2885BD" opacity="1.000000" stroke="none" 
	d="
M477.303131,457.436859 
	C477.023071,457.542236 476.689117,457.388245 476.379272,456.934998 
	C476.685333,456.816315 476.967285,456.996918 477.303131,457.436859 
z"/>
<path fill="#1E8FCC" opacity="1.000000" stroke="none" 
	d="
M504.188354,403.017883 
	C503.997833,402.773407 504.048523,402.553955 504.260071,402.219543 
	C504.499634,402.226929 504.626617,402.360413 504.760742,402.770599 
	C504.767853,403.047272 504.381317,403.031769 504.188354,403.017883 
z"/>
<path fill="#F7FDFC" opacity="1.000000" stroke="none" 
	d="
M659.370667,369.076202 
	C664.304749,367.296936 669.238831,365.517670 673.834961,363.860229 
	C670.281250,374.808929 658.954407,384.597412 638.899048,393.437805 
	C637.135376,394.305878 635.950439,394.888855 634.765564,395.471832 
	C634.765564,395.471832 634.473877,395.410797 634.027954,395.571838 
	C631.139099,396.593384 628.696045,397.453918 626.253052,398.314453 
	C626.379150,398.768921 626.505249,399.223389 626.631287,399.677856 
	C631.071167,398.792786 635.511047,397.907715 639.950928,397.022675 
	C640.735657,397.007202 641.520447,396.991699 643.041321,396.818176 
	C648.818787,395.160706 653.860046,393.661285 658.901367,392.161865 
	C650.805237,407.310669 636.707397,414.742981 621.749634,421.080414 
	C619.015625,422.238770 616.320251,423.488129 612.927612,424.891510 
	C606.371094,427.288513 600.493896,429.489532 594.616760,431.690552 
	C594.702576,432.020599 594.788452,432.350677 594.874268,432.680725 
	C601.416443,430.840698 607.958618,429.000671 614.500793,427.160645 
	C623.454712,424.423615 632.408630,421.686523 641.362610,418.949463 
	C641.582275,419.357452 641.801941,419.765442 642.021606,420.173431 
	C623.280579,438.865631 602.680725,454.514832 575.257202,460.538727 
	C576.634033,460.792938 578.053650,461.404175 579.380920,461.245209 
	C590.519348,459.910980 601.640808,458.435394 612.984863,456.974396 
	C605.945679,464.088104 598.599121,470.944397 588.914368,475.028351 
	C578.266968,479.518311 567.803955,484.445404 556.818176,489.563599 
	C556.158875,490.230255 555.942017,490.515259 555.725098,490.800293 
	C555.725098,490.800293 555.778076,490.711334 555.506348,490.739319 
	C554.950439,490.886719 554.709167,491.064301 554.210571,491.468719 
	C551.307617,493.591431 548.704773,495.545502 546.101929,497.499573 
	C546.233887,497.755951 546.365845,498.012329 546.497803,498.268707 
	C550.971863,496.464020 555.445862,494.659302 559.919861,492.854614 
	C564.314331,491.567871 568.708801,490.281189 573.103333,488.994476 
	C556.405762,503.546539 537.317993,513.996399 516.766541,524.168762 
	C520.475037,513.592957 523.612000,503.701996 527.454407,494.093170 
	C529.339844,489.378235 534.339355,485.316559 534.669434,480.724823 
	C535.062988,475.250854 537.934998,471.465027 539.788330,467.027466 
	C541.821472,462.159210 544.968140,457.761719 547.079773,452.919342 
	C551.860474,441.956268 560.592712,435.194275 571.179626,429.382019 
	C572.521912,428.422485 573.365662,427.808655 574.209412,427.194824 
	C574.209412,427.194794 574.116211,427.143738 574.366455,427.174011 
	C574.984619,427.151917 575.215637,426.946167 575.309814,426.587128 
	C575.309814,426.587128 575.641968,426.643921 576.063904,426.454224 
	C585.099121,422.244019 593.712341,418.223450 602.325623,414.202911 
	C602.173462,413.795380 602.021362,413.387878 601.869202,412.980377 
	C591.870178,416.969849 581.871155,420.959290 571.872131,424.948761 
	C568.759888,426.219910 565.647644,427.491089 562.535400,428.762268 
	C562.101929,428.359253 561.668457,427.956238 561.234985,427.553223 
	C567.385193,419.666779 573.535400,411.780365 580.145508,403.533875 
	C580.848633,402.906647 581.091797,402.639465 581.335022,402.372284 
	C581.335022,402.372284 581.504761,402.475861 581.900024,402.354858 
	C593.664490,395.248932 605.194946,388.603699 618.357117,385.374847 
	C604.381348,386.531433 592.582947,393.074036 580.963440,400.064606 
	C586.880676,391.620697 592.797974,383.176819 599.169434,374.388367 
	C599.839233,373.767456 600.054932,373.491150 600.270630,373.214874 
	C600.270630,373.214874 600.145935,373.225769 600.530640,373.222870 
	C606.680908,369.618073 612.522766,366.131287 618.189575,362.380157 
	C623.310303,358.990509 628.743347,356.840027 634.946899,356.898651 
	C637.167908,356.777740 639.388855,356.656860 642.407837,356.380859 
	C649.121277,355.782623 655.036743,355.339447 660.952271,354.896301 
	C666.364319,354.350250 671.776306,353.804230 678.037720,353.172485 
	C676.429626,354.491364 675.362854,355.366302 673.849121,356.598511 
	C673.174377,357.242523 672.946655,357.529266 672.718872,357.815979 
	C672.718872,357.815979 672.870056,357.759674 672.490112,357.768677 
	C670.686523,358.809082 669.262939,359.840454 667.839355,360.871826 
	C667.839355,360.871826 667.920898,360.917114 667.655090,360.912354 
	C667.152832,361.150574 666.916382,361.393585 666.679932,361.636597 
	C666.679932,361.636566 666.740601,361.546600 666.382568,361.569702 
	C665.330200,362.052277 664.635864,362.511780 663.941528,362.971252 
	C663.941528,362.971283 663.985168,363.006470 663.715454,363.001343 
	C663.195129,363.229584 662.944580,363.463013 662.693970,363.696411 
	C662.694031,363.696442 662.827942,363.669403 662.465942,363.664978 
	C661.387573,364.098114 660.671204,364.535675 659.954834,364.973206 
	C659.954834,364.973206 659.987244,365.006775 659.654663,365.006683 
	C658.183411,365.651855 657.044739,366.297089 655.906006,366.942322 
	C655.906006,366.942322 655.970825,366.982391 655.707825,366.959961 
	C655.197693,367.147797 654.950623,367.358063 654.703552,367.568329 
	C654.703552,367.568329 654.441467,367.414703 653.987427,367.545044 
	C649.167297,369.280426 644.801147,370.885498 640.434998,372.490570 
	C640.587524,373.038025 640.740112,373.585510 640.892639,374.132996 
	C647.052002,372.447388 653.211304,370.761810 659.370667,369.076202 
z"/>
<path fill="#F7FDFC" opacity="1.000000" stroke="none" 
	d="
M710.121765,251.025513 
	C712.954834,250.143036 715.787964,249.260544 718.513062,248.902222 
	C715.185120,253.929688 711.965149,258.432983 708.745117,262.936279 
	C696.899170,271.683838 685.053162,280.431427 672.732971,289.595062 
	C665.984680,294.698486 659.696350,299.367279 653.468750,304.115570 
	C653.058044,304.428711 653.109680,305.348206 652.974670,305.990906 
	C653.003113,305.996155 652.999329,305.938293 652.713135,305.647522 
	C647.554016,309.198547 642.681091,313.040314 637.491638,316.994232 
	C626.323486,327.039307 615.471863,336.972229 604.620239,346.905151 
	C594.863892,358.171082 585.055481,369.392456 575.362305,380.712585 
	C557.127441,402.008087 543.626831,426.465088 529.098450,450.233765 
	C528.175476,451.743744 527.175110,453.206390 525.969055,455.063202 
	C516.870117,423.540649 518.453491,393.311920 532.414917,363.877686 
	C532.951538,374.311340 532.572021,384.846649 536.678040,394.729584 
	C535.974548,370.445038 538.407166,347.542542 559.085266,329.970581 
	C558.272400,333.201630 557.635071,335.734802 556.916992,339.005646 
	C556.358765,342.175934 555.881470,344.608582 555.258057,347.419800 
	C555.116089,348.876709 555.120239,349.954987 555.051147,351.492615 
	C555.362427,358.684326 555.746948,365.416718 556.131470,372.149109 
	C556.340088,372.084198 556.548767,372.019287 556.757385,371.954407 
	C557.335510,364.330414 557.913635,356.706451 558.491821,349.082489 
	C562.103638,334.171112 568.183472,320.664703 580.616455,310.279480 
	C579.312683,317.133484 578.082520,323.600433 576.690735,330.862366 
	C576.529175,338.782959 576.529175,345.908600 576.529175,353.034241 
	C576.830322,353.045319 577.131470,353.056366 577.432617,353.067413 
	C577.648010,349.176025 577.863464,345.284668 578.078857,341.393280 
	C579.411255,334.776917 580.285095,328.026367 582.174255,321.572998 
	C585.776917,309.266296 593.343872,299.777924 604.559814,292.527924 
	C603.298645,299.476501 602.143005,305.843750 600.953003,313.040833 
	C600.143921,321.792542 599.369202,329.714417 598.594482,337.636322 
	C598.935425,337.659760 599.276306,337.683197 599.617249,337.706604 
	C600.844177,330.597656 602.071106,323.488678 603.298035,316.379700 
	C603.298035,316.379700 603.310913,316.286224 603.526062,316.091675 
	C603.959106,314.968964 604.177002,314.040741 604.394897,313.112518 
	C606.672485,307.300903 608.757324,301.404205 611.276062,295.699097 
	C614.481934,288.437622 619.117249,282.355621 627.214539,279.329895 
	C627.150696,280.003265 627.083679,280.710541 626.994019,281.960815 
	C626.971375,282.503784 627.027893,282.998169 627.027893,282.998169 
	C627.027893,282.998169 626.868347,283.332825 626.620239,283.818604 
	C625.088684,293.150116 623.805237,301.995789 622.521729,310.841492 
	C622.837891,310.884247 623.154053,310.927002 623.470215,310.969788 
	C625.206238,304.330933 626.942200,297.692078 628.678162,291.053223 
	C632.069885,279.089935 638.652161,270.378479 652.095764,268.560364 
	C651.838013,273.637726 646.673767,278.205139 649.184204,285.095703 
	C656.085571,275.838257 657.590698,263.288849 671.103638,261.340790 
	C670.391235,264.031738 669.697266,266.652832 668.905762,270.022736 
	C667.799438,275.390289 666.790649,280.009064 665.781860,284.627838 
	C666.063660,284.689545 666.345459,284.751251 666.627258,284.812958 
	C668.199158,280.727905 669.771118,276.642883 671.343018,272.557831 
	C671.343018,272.557831 671.385437,272.414093 671.593506,272.261658 
	C671.906677,271.771423 672.011719,271.433624 672.116760,271.095825 
	C674.938110,267.455994 677.344910,263.358276 680.706238,260.314728 
	C683.631287,257.666260 687.634460,256.208527 691.469971,254.518982 
	C690.288086,259.101746 688.797424,263.390076 687.306763,267.678406 
	C687.575623,267.736481 687.844543,267.794525 688.113403,267.852570 
	C690.442078,263.572662 692.770752,259.292725 695.099426,255.012817 
	C698.217896,253.635452 701.336426,252.258118 704.912476,251.053345 
	C703.688354,254.633896 702.006531,258.041870 700.324768,261.449860 
	C700.549438,261.509735 700.774109,261.569641 700.998779,261.629547 
	C704.039795,258.094879 707.080750,254.560196 710.121765,251.025513 
z"/>
<path fill="#F6FCFC" opacity="1.000000" stroke="none" 
	d="
M712.139343,285.939941 
	C709.178772,293.901398 705.544617,301.346375 696.760559,305.603363 
	C690.034668,308.537506 683.865723,311.137817 677.696838,313.738129 
	C677.795715,314.131836 677.894592,314.525513 677.993469,314.919189 
	C684.968201,312.897308 691.942871,310.875427 698.917603,308.853546 
	C699.274536,309.357574 700.049988,310.145264 699.928284,310.324768 
	C694.794495,317.898682 688.456421,324.008453 679.565491,327.061707 
	C673.303284,329.212219 667.102600,331.541718 660.622803,333.882202 
	C661.046204,335.096222 661.507751,336.419556 662.212280,338.439636 
	C654.842896,341.401123 647.505554,344.349762 639.618286,347.604492 
	C638.590332,348.246216 638.112366,348.581787 637.634338,348.917328 
	C637.634338,348.917328 637.301147,348.875885 636.796265,348.946167 
	C634.126831,350.283142 631.962280,351.549896 629.797791,352.816620 
	C629.797791,352.816620 629.899109,352.860382 629.558228,352.848206 
	C627.727112,353.768433 626.236816,354.700867 624.748230,355.709229 
	C624.750000,355.785156 624.598267,355.792328 624.253906,355.803589 
	C619.477722,358.597900 615.112000,361.496521 610.574646,364.095490 
	C609.163086,364.904083 606.732605,367.065399 606.195923,363.032806 
	C616.436523,352.195465 626.559387,341.243927 636.942810,330.545197 
	C656.879150,310.003357 679.334900,292.389191 702.124390,275.199097 
	C704.818176,273.167145 708.204041,272.052704 711.414246,270.440033 
	C711.414246,269.731628 711.414246,268.454865 711.953735,267.272644 
	C713.335754,267.914917 714.178284,268.462677 715.020813,269.010406 
	C715.912292,269.577850 716.803833,270.145294 717.907166,270.847595 
	C717.289612,272.585968 716.651123,274.383118 715.735229,276.752502 
	C714.613403,278.535278 713.768982,279.745789 712.924561,280.956299 
	C712.924561,280.956299 712.996460,280.989471 712.719788,281.079346 
	C712.142578,281.604675 711.842041,282.040131 711.541504,282.475586 
	C711.541504,282.475586 711.370483,282.528259 711.004517,282.672913 
	C706.796570,284.774628 702.954529,286.731689 699.112549,288.688751 
	C699.195801,288.957031 699.279114,289.225342 699.362427,289.493622 
	C703.621399,288.309052 707.880371,287.124512 712.139343,285.939941 
z"/>
<path fill="#F5FCFC" opacity="1.000000" stroke="none" 
	d="
M457.101318,701.964050 
	C457.070709,702.725159 457.040070,703.486267 457.007996,705.025940 
	C457.299835,708.452759 457.593140,711.100952 457.886475,713.749207 
	C448.971680,724.328979 440.056854,734.908813 430.790497,745.905823 
	C430.854980,744.793884 430.677368,743.895508 430.981720,743.211487 
	C434.675903,734.908447 438.469879,726.649841 442.171356,718.349976 
	C443.381287,715.636963 444.929810,712.913269 445.334564,710.054504 
	C445.653870,707.799072 444.967163,703.621155 443.835358,703.283142 
	C440.770294,702.367615 436.755310,701.760986 434.999115,706.177734 
	C434.387054,707.717102 433.730072,709.261169 433.341034,710.863159 
	C430.968201,720.633972 428.666748,730.422180 425.826233,740.591675 
	C424.880951,739.660034 424.450897,738.341187 424.020874,737.022339 
	C425.431091,725.218994 425.715637,713.432495 423.528259,701.665283 
	C440.696686,693.099854 448.991638,676.505615 453.938721,653.348938 
	C458.445038,653.085693 459.559784,655.505615 458.840179,659.450500 
	C458.246094,662.707153 457.637238,665.961060 457.010803,670.054199 
	C457.024902,681.249451 457.063110,691.606750 457.101318,701.964050 
z"/>
<path fill="#E9FAFB" opacity="1.000000" stroke="none" 
	d="
M498.984863,545.017700 
	C498.984863,545.017700 498.811188,545.191833 498.564850,545.564087 
	C497.434937,548.235046 496.551361,550.533691 495.667755,552.832336 
	C493.468140,558.326233 491.268494,563.820068 488.764221,569.809204 
	C488.227997,570.554382 488.140381,570.847412 488.196716,571.183472 
	C488.196716,571.183472 488.157379,571.219604 487.903748,571.032959 
	C487.429749,570.223206 487.209381,569.600159 486.989014,568.977112 
	C491.157166,556.927612 496.019135,545.066284 499.348877,532.789429 
	C506.263031,507.296692 517.311401,483.506805 529.450500,460.345154 
	C538.515015,443.049805 549.422791,426.585358 560.792358,410.666962 
	C575.442871,390.154938 591.374146,370.557678 607.132629,350.058472 
	C617.323669,339.986450 627.135864,330.422394 637.002319,321.236755 
	C637.103882,321.865692 637.151123,322.116150 637.198303,322.366577 
	C615.914307,343.506775 595.423828,365.372925 578.413208,390.176697 
	C553.058899,427.146667 528.535889,464.583649 514.541809,507.784912 
	C511.796082,516.261353 507.556152,524.253906 503.788239,533.066223 
	C503.339325,534.434143 503.107483,535.205383 502.875671,535.976685 
	C502.875702,535.976685 502.953003,535.946899 502.657562,536.102173 
	C502.105988,537.086853 501.849854,537.916260 501.593719,538.745667 
	C501.593719,538.745667 501.613525,538.785034 501.369507,538.976685 
	C500.687897,540.411682 500.250305,541.654968 499.812744,542.898254 
	C499.812744,542.898254 499.903839,542.966248 499.643036,543.098633 
	C499.249786,543.826599 499.117310,544.422180 498.984863,545.017700 
z"/>
<path fill="#EDFBFC" opacity="1.000000" stroke="none" 
	d="
M509.093323,483.017090 
	C508.658081,485.217682 508.222809,487.418274 507.787567,489.618866 
	C502.088440,477.643127 498.188416,465.350983 496.345825,451.603668 
	C496.206055,442.938782 496.227203,435.080109 496.248352,427.221436 
	C496.693970,424.339752 497.139587,421.458069 497.585205,418.576355 
	C497.822296,418.537903 498.059357,418.499420 498.296417,418.460938 
	C501.197601,427.780609 504.094910,437.101471 507.001221,446.419495 
	C509.420624,454.176605 512.540771,461.806458 513.966309,469.741333 
	C514.616699,473.361511 511.932373,477.580841 510.422791,481.222290 
	C507.665588,471.283447 505.246185,461.650787 502.826752,452.018127 
	C502.185760,452.186218 501.544800,452.354309 500.903809,452.522430 
	C503.633636,462.687317 506.363495,472.852203 509.093323,483.017090 
z"/>
<path fill="#EDFBFC" opacity="1.000000" stroke="none" 
	d="
M482.177948,489.757507 
	C481.737457,486.826935 481.356262,484.306122 480.975067,481.785278 
	C481.456146,481.568695 481.937195,481.352081 482.418243,481.135468 
	C487.251862,489.319641 492.281952,497.396027 496.853149,505.724213 
	C500.146210,511.723785 494.770386,516.350037 494.346802,521.819031 
	C493.710052,521.884766 493.073273,521.950500 492.436523,522.016235 
	C489.036743,511.399902 485.636993,500.783539 482.177948,489.757507 
z"/>
<path fill="#1D83BF" opacity="1.000000" stroke="none" 
	d="
M636.948059,320.858337 
	C627.135864,330.422394 617.323669,339.986450 607.241699,349.739685 
	C606.437012,348.957306 605.902161,347.985748 604.993774,346.959686 
	C615.471863,336.972229 626.323486,327.039307 637.763367,317.145691 
	C638.604919,317.508728 638.858154,317.832428 638.982544,318.419495 
	C638.218445,319.408020 637.583252,320.133179 636.948059,320.858337 
z"/>
<path fill="#207EB9" opacity="1.000000" stroke="none" 
	d="
M624.746460,355.633301 
	C626.236816,354.700867 627.727112,353.768433 629.553345,352.793213 
	C629.276123,353.662933 628.663086,354.575378 627.869690,355.756195 
	C630.086426,355.963654 632.248596,356.165985 634.678833,356.633484 
	C628.743347,356.840027 623.310303,358.990509 618.189575,362.380157 
	C612.522766,366.131287 606.680908,369.618073 600.568848,373.272400 
	C603.015503,370.498657 600.652100,364.959869 605.864014,363.132141 
	C606.732605,367.065399 609.163086,364.904083 610.574646,364.095490 
	C615.112000,361.496521 619.477722,358.597900 624.388794,355.959473 
	C624.958191,356.198730 625.048401,356.293274 625.138611,356.387817 
	C625.007874,356.136322 624.877136,355.884796 624.746460,355.633301 
z"/>
<path fill="#CCF1F9" opacity="1.000000" stroke="none" 
	d="
M486.743286,569.244629 
	C487.209381,569.600159 487.429749,570.223206 487.916809,571.056274 
	C483.591675,587.814941 478.999847,604.363708 474.408020,620.912476 
	C477.158173,603.478455 480.386536,586.156555 486.743286,569.244629 
z"/>
<path fill="#DFF7FB" opacity="1.000000" stroke="none" 
	d="
M528.467285,535.458191 
	C525.310059,536.493958 522.505859,537.355896 519.701660,538.217834 
	C528.691772,530.565247 539.341370,526.847046 550.267212,523.758118 
	C550.543823,524.366943 550.820435,524.975830 551.097046,525.584656 
	C543.671448,528.817871 536.245850,532.051086 528.467285,535.458191 
z"/>
<path fill="#207EB9" opacity="1.000000" stroke="none" 
	d="
M709.157043,262.961792 
	C711.965149,258.432983 715.185120,253.929688 718.667358,249.221741 
	C720.787903,248.030731 722.563782,246.787094 724.535767,246.155685 
	C725.696228,245.784134 727.168030,246.384674 728.200134,246.607178 
	C727.798828,246.620712 727.697144,246.575073 727.595459,246.529434 
	C727.714905,246.698502 727.834351,246.867569 727.953735,247.036652 
	C726.946106,248.565811 725.938538,250.094971 724.584229,252.127686 
	C720.794250,255.306351 717.350952,257.981445 713.740662,260.786255 
	C714.589172,261.877747 715.229797,262.701813 716.011841,263.707764 
	C714.633545,264.660889 713.437195,265.488220 712.240784,266.315552 
	C711.350159,265.206177 710.459534,264.096771 709.157043,262.961792 
z"/>
<path fill="#2F80B3" opacity="1.000000" stroke="none" 
	d="
M580.788696,400.272339 
	C592.582947,393.074036 604.381348,386.531433 618.357117,385.374847 
	C605.194946,388.603699 593.664490,395.248932 581.993652,402.321411 
	C581.332703,401.766022 580.973328,401.123047 580.788696,400.272339 
z"/>
<path fill="#D8F6FB" opacity="1.000000" stroke="none" 
	d="
M712.191650,266.493439 
	C713.437195,265.488220 714.633545,264.660889 716.011841,263.707764 
	C715.229797,262.701813 714.589172,261.877747 713.740662,260.786255 
	C717.350952,257.981445 720.794250,255.306351 724.505493,252.486069 
	C722.699402,258.310883 721.820190,264.962067 715.281006,268.772583 
	C714.178284,268.462677 713.335754,267.914917 712.258179,267.193909 
	C712.023071,267.020660 712.142456,266.671326 712.191650,266.493439 
z"/>
<path fill="#2A78AC" opacity="1.000000" stroke="none" 
	d="
M652.946228,305.985657 
	C653.109680,305.348206 653.058044,304.428711 653.468750,304.115570 
	C659.696350,299.367279 665.984680,294.698486 672.584717,289.892395 
	C670.707031,292.855103 668.875000,296.318420 666.203125,298.918640 
	C663.051636,301.985657 659.173462,304.305908 655.398560,306.692139 
	C655.327209,306.052399 655.467651,305.670410 655.608154,305.288452 
	C654.720825,305.520874 653.833557,305.753265 652.946228,305.985657 
z"/>
<path fill="#2F80B3" opacity="1.000000" stroke="none" 
	d="
M572.307861,424.979614 
	C581.871155,420.959290 591.870178,416.969849 601.869202,412.980377 
	C602.021362,413.387878 602.173462,413.795380 602.325623,414.202911 
	C593.712341,418.223450 585.099121,422.244019 576.197388,426.351440 
	C574.853821,425.962341 573.798706,425.486389 572.307861,424.979614 
z"/>
<path fill="#2A78AC" opacity="1.000000" stroke="none" 
	d="
M509.331116,482.854187 
	C506.363495,472.852203 503.633636,462.687317 500.903809,452.522430 
	C501.544800,452.354309 502.185760,452.186218 502.826752,452.018127 
	C505.246185,461.650787 507.665588,471.283447 510.098267,481.300018 
	C509.930634,482.019745 509.749756,482.355530 509.331116,482.854187 
z"/>
<path fill="#DFF7FB" opacity="1.000000" stroke="none" 
	d="
M461.716217,640.060791 
	C466.976044,641.841492 471.819427,643.605164 476.662781,645.368896 
	C476.495361,645.838623 476.327972,646.308411 476.160553,646.778198 
	C469.507782,644.914307 462.210236,645.362183 456.227875,640.290771 
	C457.918488,640.208435 459.609131,640.126099 461.716217,640.060791 
z"/>
<path fill="#2B82B7" opacity="1.000000" stroke="none" 
	d="
M628.321045,290.920105 
	C626.942200,297.692078 625.206238,304.330933 623.470215,310.969788 
	C623.154053,310.927002 622.837891,310.884247 622.521729,310.841492 
	C623.805237,301.995789 625.088684,293.150116 626.643433,284.002563 
	C627.264404,286.062805 627.614197,288.424896 628.321045,290.920105 
z"/>
<path fill="#247EB9" opacity="1.000000" stroke="none" 
	d="
M457.378784,701.659180 
	C457.063110,691.606750 457.024902,681.249451 457.053406,670.468506 
	C457.407318,673.747253 457.905884,677.447998 457.935547,681.152466 
	C457.989471,687.885254 457.764709,694.620239 457.378784,701.659180 
z"/>
<path fill="#247EB9" opacity="1.000000" stroke="none" 
	d="
M698.738525,308.630615 
	C691.942871,310.875427 684.968201,312.897308 677.993469,314.919189 
	C677.894592,314.525513 677.795715,314.131836 677.696838,313.738129 
	C683.865723,311.137817 690.034668,308.537506 696.563904,305.872925 
	C697.469299,306.675049 698.014343,307.541382 698.738525,308.630615 
z"/>
<path fill="#2F80B3" opacity="1.000000" stroke="none" 
	d="
M603.020325,316.162842 
	C602.071106,323.488678 600.844177,330.597656 599.617249,337.706604 
	C599.276306,337.683197 598.935425,337.659760 598.594482,337.636322 
	C599.369202,329.714417 600.143921,321.792542 600.995850,313.464478 
	C601.629517,314.020874 602.186096,314.983429 603.020325,316.162842 
z"/>
<path fill="#207EB9" opacity="1.000000" stroke="none" 
	d="
M558.246765,349.054810 
	C557.913635,356.706451 557.335510,364.330414 556.757385,371.954407 
	C556.548767,372.019287 556.340088,372.084198 556.131470,372.149109 
	C555.746948,365.416718 555.362427,358.684326 555.359863,351.438354 
	C556.156677,350.286224 556.571472,349.647644 556.993164,349.004272 
	C557.000061,348.999542 557.014648,348.985718 557.014648,348.985718 
	C557.344788,348.972900 557.673828,348.986694 558.246765,349.054810 
z"/>
<path fill="#247EB9" opacity="1.000000" stroke="none" 
	d="
M658.909546,369.054016 
	C653.211304,370.761810 647.052002,372.447388 640.892639,374.132996 
	C640.740112,373.585510 640.587524,373.038025 640.434998,372.490570 
	C644.801147,370.885498 649.167297,369.280426 653.850708,367.611084 
	C655.594727,368.041779 657.021545,368.536774 658.909546,369.054016 
z"/>
<path fill="#2F80B3" opacity="1.000000" stroke="none" 
	d="
M614.177979,427.016357 
	C607.958618,429.000671 601.416443,430.840698 594.874268,432.680725 
	C594.788452,432.350677 594.702576,432.020599 594.616760,431.690552 
	C600.493896,429.489532 606.371094,427.288513 612.614380,425.067444 
	C613.272034,425.655609 613.563599,426.263855 614.177979,427.016357 
z"/>
<path fill="#427A9E" opacity="1.000000" stroke="none" 
	d="
M578.002808,340.956543 
	C577.863464,345.284668 577.648010,349.176025 577.432617,353.067413 
	C577.131470,353.056366 576.830322,353.045319 576.529175,353.034241 
	C576.529175,345.908600 576.529175,338.782959 576.719360,331.288452 
	C577.248535,334.119659 577.587585,337.319763 578.002808,340.956543 
z"/>
<path fill="#2B82B7" opacity="1.000000" stroke="none" 
	d="
M709.775635,251.008392 
	C707.080750,254.560196 704.039795,258.094879 700.998779,261.629547 
	C700.774109,261.569641 700.549438,261.509735 700.324768,261.449860 
	C702.006531,258.041870 703.688354,254.633896 705.256592,250.818436 
	C706.571838,250.604385 708.000732,250.797836 709.775635,251.008392 
z"/>
<path fill="#2B82B7" opacity="1.000000" stroke="none" 
	d="
M712.422729,285.918640 
	C707.880371,287.124512 703.621399,288.309052 699.362427,289.493622 
	C699.279114,289.225342 699.195801,288.957031 699.112549,288.688751 
	C702.954529,286.731689 706.796570,284.774628 710.928833,282.720642 
	C711.714783,283.714905 712.210449,284.806122 712.422729,285.918640 
z"/>
<path fill="#2B82B7" opacity="1.000000" stroke="none" 
	d="
M559.680481,492.609070 
	C555.445862,494.659302 550.971863,496.464020 546.497803,498.268707 
	C546.365845,498.012329 546.233887,497.755951 546.101929,497.499573 
	C548.704773,495.545502 551.307617,493.591431 554.321655,491.653412 
	C554.732727,491.669464 555.004883,492.003662 555.092285,492.173096 
	C555.449036,492.231323 555.718384,492.120148 555.992798,492.005310 
	C555.997864,492.001617 556.007202,491.991547 556.007202,491.991547 
	C557.151855,492.115540 558.296448,492.239502 559.680481,492.609070 
z"/>
<path fill="#1378B5" opacity="1.000000" stroke="none" 
	d="
M423.992676,736.555176 
	C424.450897,738.341187 424.880951,739.660034 425.708984,740.938110 
	C426.464905,741.902161 426.822815,742.906921 426.812134,742.876892 
	C425.349518,743.479492 424.453003,743.848938 423.361450,744.298645 
	C423.361450,737.107666 423.361450,729.639343 423.361450,722.171021 
	C423.562439,722.163391 423.763458,722.155701 423.964447,722.148010 
	C423.964447,726.794678 423.964447,731.441284 423.992676,736.555176 
z"/>
<path fill="#2F80B3" opacity="1.000000" stroke="none" 
	d="
M671.087280,272.318970 
	C669.771118,276.642883 668.199158,280.727905 666.627258,284.812958 
	C666.345459,284.751251 666.063660,284.689545 665.781860,284.627838 
	C666.790649,280.009064 667.799438,275.390289 668.934570,270.412476 
	C669.651062,270.728943 670.241272,271.404510 671.087280,272.318970 
z"/>
<path fill="#2F80B3" opacity="1.000000" stroke="none" 
	d="
M694.761597,254.985764 
	C692.770752,259.292725 690.442078,263.572662 688.113403,267.852570 
	C687.844543,267.794525 687.575623,267.736481 687.306763,267.678406 
	C688.797424,263.390076 690.288086,259.101746 691.832886,254.468506 
	C692.732666,254.402008 693.578186,254.680359 694.761597,254.985764 
z"/>
<path fill="#207EB9" opacity="1.000000" stroke="none" 
	d="
M660.651855,354.619690 
	C655.036743,355.339447 649.121277,355.782623 642.772827,356.191895 
	C640.914612,356.014374 639.489197,355.870697 638.063843,355.727020 
	C638.067627,355.265717 638.071350,354.804382 638.075134,354.343048 
	C645.500549,354.343048 652.925964,354.343048 660.651855,354.619690 
z"/>
<path fill="#2885BD" opacity="1.000000" stroke="none" 
	d="
M658.929565,391.830994 
	C653.860046,393.661285 648.818787,395.160706 643.413696,396.690643 
	C645.304077,395.667603 647.554382,394.605652 649.813354,393.562561 
	C652.368103,392.382935 654.910828,391.170532 657.521057,390.128387 
	C657.776672,390.026306 658.468506,391.016754 658.929565,391.830994 
z"/>
<path fill="#2A78AC" opacity="1.000000" stroke="none" 
	d="
M495.877075,427.400574 
	C496.227203,435.080109 496.206055,442.938782 496.159637,451.238220 
	C495.770172,451.670349 495.086700,451.657410 495.086731,451.653809 
	C495.196350,443.628723 495.351105,435.604218 495.877075,427.400574 
z"/>
<path fill="#2F80B3" opacity="1.000000" stroke="none" 
	d="
M639.526855,397.011047 
	C635.511047,397.907715 631.071167,398.792786 626.631287,399.677856 
	C626.505249,399.223389 626.379150,398.768921 626.253052,398.314453 
	C628.696045,397.453918 631.139099,396.593384 633.907104,395.658936 
	C635.855652,396.056519 637.479187,396.527985 639.526855,397.011047 
z"/>
<path fill="#CCF1F9" opacity="1.000000" stroke="none" 
	d="
M637.002319,321.236755 
	C637.583252,320.133179 638.218445,319.408020 639.286377,318.280029 
	C642.317139,315.728912 644.915039,313.580627 647.699463,311.650024 
	C648.009460,312.013397 648.132996,312.159149 648.256531,312.304901 
	C644.772339,315.555267 641.288147,318.805634 637.501099,322.211304 
	C637.151123,322.116150 637.103882,321.865692 637.002319,321.236755 
z"/>
<path fill="#CCF1F9" opacity="1.000000" stroke="none" 
	d="
M652.974670,305.990906 
	C653.833557,305.753265 654.720825,305.520874 655.608154,305.288452 
	C655.467651,305.670410 655.327209,306.052399 655.042847,306.711975 
	C652.886108,308.672791 650.873352,310.356018 648.558594,312.172058 
	C648.132996,312.159149 648.009460,312.013397 647.945618,311.439880 
	C649.669983,309.320831 651.334656,307.629578 652.999329,305.938293 
	C652.999329,305.938293 653.003113,305.996155 652.974670,305.990906 
z"/>
<path fill="#207EB9" opacity="1.000000" stroke="none" 
	d="
M630.183960,352.878387 
	C631.962280,351.549896 634.126831,350.283142 636.656372,349.039001 
	C634.871033,350.354462 632.720581,351.647308 630.183960,352.878387 
z"/>
<path fill="#247EB9" opacity="1.000000" stroke="none" 
	d="
M458.123901,713.940796 
	C457.593140,711.100952 457.299835,708.452759 457.070129,705.402771 
	C460.675018,707.623779 458.887878,710.962830 458.123901,713.940796 
z"/>
<path fill="#207EB9" opacity="1.000000" stroke="none" 
	d="
M555.404175,347.041229 
	C555.881470,344.608582 556.358765,342.175934 556.958496,339.389709 
	C557.054871,342.065674 557.028809,345.095215 557.008667,348.555237 
	C557.014648,348.985718 557.000061,348.999542 556.775024,348.868042 
	C556.168030,348.171417 555.786072,347.606323 555.404175,347.041229 
z"/>
<path fill="#247EB9" opacity="1.000000" stroke="none" 
	d="
M496.038757,552.763672 
	C496.551361,550.533691 497.434937,548.235046 498.603699,545.680786 
	C498.062500,547.848511 497.236145,550.271729 496.038757,552.763672 
z"/>
<path fill="#247EB9" opacity="1.000000" stroke="none" 
	d="
M668.211426,360.919617 
	C669.262939,359.840454 670.686523,358.809082 672.436890,357.708008 
	C671.370361,358.748016 669.976929,359.857697 668.211426,360.919617 
z"/>
<path fill="#2B82B7" opacity="1.000000" stroke="none" 
	d="
M713.291138,280.930145 
	C713.768982,279.745789 714.613403,278.535278 715.698364,277.114777 
	C715.178467,278.237885 714.418091,279.570923 713.291138,280.930145 
z"/>
<path fill="#2F80B3" opacity="1.000000" stroke="none" 
	d="
M635.075806,395.615326 
	C635.950439,394.888855 637.135376,394.305878 638.604004,393.688751 
	C637.720520,394.355988 636.553284,395.057404 635.075806,395.615326 
z"/>
<path fill="#247EB9" opacity="1.000000" stroke="none" 
	d="
M500.164581,542.797424 
	C500.250305,541.654968 500.687897,540.411682 501.391266,538.980225 
	C501.276825,540.093628 500.896637,541.395081 500.164581,542.797424 
z"/>
<path fill="#247EB9" opacity="1.000000" stroke="none" 
	d="
M656.264099,366.961975 
	C657.044739,366.297089 658.183411,365.651855 659.654907,364.983398 
	C658.865845,365.634003 657.744019,366.307800 656.264099,366.961975 
z"/>
<path fill="#2F80B3" opacity="1.000000" stroke="none" 
	d="
M573.862183,427.145233 
	C573.365662,427.808655 572.521912,428.422485 571.362183,429.101074 
	C571.869141,428.475769 572.692078,427.785706 573.862183,427.145233 
z"/>
<path fill="#2F80B3" opacity="1.000000" stroke="none" 
	d="
M604.093140,313.185089 
	C604.177002,314.040741 603.959106,314.968964 603.497009,316.054504 
	C603.432312,315.227112 603.611816,314.242371 604.093140,313.185089 
z"/>
<path fill="#247EB9" opacity="1.000000" stroke="none" 
	d="
M501.952271,538.673706 
	C501.849854,537.916260 502.105988,537.086853 502.634155,536.067993 
	C502.707733,536.786194 502.509308,537.693970 501.952271,538.673706 
z"/>
<path fill="#247EB9" opacity="1.000000" stroke="none" 
	d="
M503.144897,535.805664 
	C503.107483,535.205383 503.339325,534.434143 503.764526,533.443481 
	C503.776642,534.027710 503.595367,534.831177 503.144897,535.805664 
z"/>
<path fill="#207EB9" opacity="1.000000" stroke="none" 
	d="
M637.960205,348.944092 
	C638.112366,348.581787 638.590332,348.246216 639.361816,347.872192 
	C639.198914,348.212799 638.742493,348.591858 637.960205,348.944092 
z"/>
<path fill="#247EB9" opacity="1.000000" stroke="none" 
	d="
M664.307007,362.981598 
	C664.635864,362.511780 665.330200,362.052277 666.330933,361.553101 
	C665.982422,362.006256 665.327515,362.499084 664.307007,362.981598 
z"/>
<path fill="#247EB9" opacity="1.000000" stroke="none" 
	d="
M660.316650,364.982605 
	C660.671204,364.535675 661.387573,364.098114 662.416809,363.617523 
	C662.045959,364.046967 661.362183,364.519470 660.316650,364.982605 
z"/>
<path fill="#247EB9" opacity="1.000000" stroke="none" 
	d="
M499.239502,544.834473 
	C499.117310,544.422180 499.249786,543.826599 499.627350,543.044067 
	C499.746368,543.455078 499.620270,544.053223 499.239502,544.834473 
z"/>
<path fill="#2B82B7" opacity="1.000000" stroke="none" 
	d="
M711.867432,282.544067 
	C711.842041,282.040131 712.142578,281.604675 712.697693,281.046509 
	C712.699280,281.486694 712.446289,282.049652 711.867432,282.544067 
z"/>
<path fill="#CCF1F9" opacity="1.000000" stroke="none" 
	d="
M488.417419,571.069214 
	C488.140381,570.847412 488.227997,570.554382 488.645630,570.159546 
	C488.935608,570.362732 488.871094,570.676208 488.417419,571.069214 
z"/>
<path fill="#2B82B7" opacity="1.000000" stroke="none" 
	d="
M627.189331,282.916565 
	C627.027893,282.998169 626.971375,282.503784 627.034058,282.263123 
	C627.247864,282.194183 627.415771,282.355225 627.536743,282.546082 
	C627.562561,282.586761 627.417236,282.735840 627.189331,282.916565 
z"/>
<path fill="#2F80B3" opacity="1.000000" stroke="none" 
	d="
M671.855591,271.188232 
	C672.011719,271.433624 671.906677,271.771423 671.550415,272.200317 
	C671.397705,271.954498 671.496094,271.617584 671.855591,271.188232 
z"/>
<path fill="#2B82B7" opacity="1.000000" stroke="none" 
	d="
M556.018677,490.759064 
	C555.942017,490.515259 556.158875,490.230255 556.640564,489.847778 
	C556.707642,490.072876 556.509949,490.395355 556.018677,490.759064 
z"/>
<path fill="#2B82B7" opacity="1.000000" stroke="none" 
	d="
M554.621704,491.484772 
	C554.709167,491.064301 554.950439,490.886719 555.456177,490.726562 
	C555.746765,490.899933 555.815735,491.113983 555.945984,491.659790 
	C556.007202,491.991547 555.997864,492.001617 555.747192,491.998718 
	C555.496460,491.995819 555.004883,492.003662 555.004883,492.003662 
	C555.004883,492.003662 554.732727,491.669464 554.621704,491.484772 
z"/>
<path fill="#247EB9" opacity="1.000000" stroke="none" 
	d="
M654.972656,367.613770 
	C654.950623,367.358063 655.197693,367.147797 655.710938,366.921997 
	C655.731995,367.157349 655.486877,367.408295 654.972656,367.613770 
z"/>
<path fill="#2F80B3" opacity="1.000000" stroke="none" 
	d="
M575.042358,426.494446 
	C575.215637,426.946167 574.984619,427.151917 574.369141,427.227112 
	C574.339233,426.967224 574.557007,426.684509 575.042358,426.494446 
z"/>
<path fill="#247EB9" opacity="1.000000" stroke="none" 
	d="
M673.002319,357.755859 
	C672.946655,357.529266 673.174377,357.242523 673.679932,356.873383 
	C673.733765,357.092590 673.509827,357.394165 673.002319,357.755859 
z"/>
<path fill="#247EB9" opacity="1.000000" stroke="none" 
	d="
M666.963806,361.655457 
	C666.916382,361.393585 667.152832,361.150574 667.661438,360.866150 
	C667.704956,361.107880 667.476318,361.391083 666.963806,361.655457 
z"/>
<path fill="#2F80B3" opacity="1.000000" stroke="none" 
	d="
M581.031128,402.384796 
	C581.091797,402.639465 580.848633,402.906647 580.336121,403.272217 
	C580.286987,403.046204 580.507141,402.721741 581.031128,402.384796 
z"/>
<path fill="#247EB9" opacity="1.000000" stroke="none" 
	d="
M662.968994,363.701660 
	C662.944580,363.463013 663.195129,363.229584 663.717957,362.973450 
	C663.741516,363.202789 663.492798,363.454865 662.968994,363.701660 
z"/>
<path fill="#207EB9" opacity="1.000000" stroke="none" 
	d="
M599.984131,373.242493 
	C600.054932,373.491150 599.839233,373.767456 599.347534,374.110718 
	C599.280212,373.875122 599.488953,373.572601 599.984131,373.242493 
z"/>
<path fill="#2A78AC" opacity="1.000000" stroke="none" 
	d="
M652.713135,305.647522 
	C651.334656,307.629578 649.669983,309.320831 647.759155,311.222229 
	C644.915039,313.580627 642.317139,315.728912 639.415283,318.016663 
	C638.858154,317.832428 638.604919,317.508728 638.079895,317.033569 
	C642.681091,313.040314 647.554016,309.198547 652.713135,305.647522 
z"/>
<path fill="#1E8FCC" opacity="1.000000" stroke="none" 
	d="
M555.258057,347.419800 
	C555.786072,347.606323 556.168030,348.171417 556.768188,348.872772 
	C556.571472,349.647644 556.156677,350.286224 555.433105,350.979065 
	C555.120239,349.954987 555.116089,348.876709 555.258057,347.419800 
z"/>
<path fill="#1E8FCC" opacity="1.000000" stroke="none" 
	d="
M624.748230,355.709229 
	C624.877136,355.884796 625.007874,356.136322 625.138611,356.387817 
	C625.048401,356.293274 624.958191,356.198730 624.733154,355.948242 
	C624.598267,355.792328 624.750000,355.785156 624.748230,355.709229 
z"/>
<path fill="#1E8FCC" opacity="1.000000" stroke="none" 
	d="
M727.975098,247.018265 
	C727.834351,246.867569 727.714905,246.698502 727.595459,246.529434 
	C727.697144,246.575073 727.798828,246.620712 727.967163,246.811920 
	C728.033813,246.957504 727.996521,246.999878 727.975098,247.018265 
z"/>
<path fill="#1E8FCC" opacity="1.000000" stroke="none" 
	d="
M555.092285,492.173096 
	C555.004883,492.003662 555.496460,491.995819 555.742065,492.002380 
	C555.718384,492.120148 555.449036,492.231323 555.092285,492.173096 
z"/>
</svg>